<svg height="512" viewBox="0 0 256 256" width="512" xmlns="http://www.w3.org/2000/svg"><path d="m128 139.25a27.75 27.75 0 1 0 27.75 27.75 27.781 27.781 0 0 0 -27.75-27.75zm18.559 14.617-10.639 5.89c-.056-.062-.111-.126-.168-.186l6.26-10.473a22.933 22.933 0 0 1 4.547 4.769zm-18.559 18.883a5.75 5.75 0 1 1 5.75-5.75 5.757 5.757 0 0 1 -5.75 5.75zm-22.75-5.75a22.742 22.742 0 0 1 32.515-20.543l-6.221 10.406a10.737 10.737 0 0 0 -8.166 19.828l-2.537 11.9a22.785 22.785 0 0 1 -15.591-21.591zm22.75 22.75a22.713 22.713 0 0 1 -2.27-.114l2.537-11.9a10.707 10.707 0 0 0 10.082-13.608l10.643-5.893a22.747 22.747 0 0 1 -20.992 31.515z" fill="#ed9abc"/><path d="m128 73.618a73.724 73.724 0 0 1 -23.337-3.886 2.5 2.5 0 1 1 1.576-4.744 66.146 66.146 0 0 0 43.167.012 2.5 2.5 0 0 1 1.619 4.731 70.789 70.789 0 0 1 -23.025 3.887z" fill="#ebe7f2"/><g fill="#846f75"><path d="m187.5 127.385h-119a2.5 2.5 0 0 0 -2.5 2.5v73.886a2.5 2.5 0 0 0 2.5 2.5h119a2.5 2.5 0 0 0 2.5-2.5v-73.886a2.5 2.5 0 0 0 -2.5-2.5zm-2.5 73.886h-114v-68.886h114z"/><path d="m187.5 215.833h-119a2.5 2.5 0 0 0 0 5h119a2.5 2.5 0 0 0 0-5z"/><path d="m57.215 192.812h-7.2l7.4-62.12a31.356 31.356 0 0 1 31.122-27.636 2.5 2.5 0 0 0 0-5 36.358 36.358 0 0 0 -36.088 32.044l-7.728 64.915a2.5 2.5 0 0 0 2.483 2.8h10.011a2.5 2.5 0 0 0 0-5z"/><path d="m211.279 195.016-7.728-64.916a36.358 36.358 0 0 0 -36.087-32.045 2.5 2.5 0 0 0 0 5 31.356 31.356 0 0 1 31.122 27.636l7.395 62.12h-7.2a2.5 2.5 0 1 0 0 5h10.019a2.5 2.5 0 0 0 2.483-2.8z"/><path d="m154.567 86.884a26.567 26.567 0 0 1 -53.134 0 2.5 2.5 0 0 0 -5 0 31.567 31.567 0 0 0 63.134 0 2.5 2.5 0 0 0 -5 0z"/><path d="m93.894 77.915a56.726 56.726 0 0 0 68.212 0 5.961 5.961 0 0 0 2.351-4.728v-.7a6.006 6.006 0 0 0 -3.5-5.455l-.017-7.149a33 33 0 0 0 -22.872-31.473 2.5 2.5 0 0 0 -1.544 4.756 28.016 28.016 0 0 1 19.412 26.722l.022 9.1a2.5 2.5 0 0 0 2.5 2.494 1 1 0 0 1 1 1v.7a.935.935 0 0 1 -.369.742 51.711 51.711 0 0 1 -62.176 0 .935.935 0 0 1 -.369-.742v-1.001a.7.7 0 0 1 .693-.694 2.5 2.5 0 0 0 2.5-2.494l.022-9.111a28.014 28.014 0 0 1 19.411-26.716 2.5 2.5 0 0 0 -1.544-4.756 33 33 0 0 0 -22.868 31.466l-.017 7.187a5.7 5.7 0 0 0 -3.2 5.118v1.006a5.961 5.961 0 0 0 2.353 4.728z"/></g><path d="m127.847 62.7a19.109 19.109 0 0 1 -9.488-2.511l-1.2-.688a2.5 2.5 0 0 1 -1.258-2.17v-30.463a2.5 2.5 0 0 1 1.885-2.423 40.968 40.968 0 0 1 20.129 0 2.5 2.5 0 0 1 1.884 2.423v30.466a2.5 2.5 0 0 1 -1.258 2.17l-1.2.688a19.106 19.106 0 0 1 -9.494 2.508zm-6.947-6.815a14.167 14.167 0 0 0 13.9 0v-27.019a36.028 36.028 0 0 0 -13.9 0z" fill="#ed9abc"/></svg>