<svg height="512" viewBox="0 0 512 512" width="512" xmlns="http://www.w3.org/2000/svg"><g><g fill="#57a4ff"><path d="m16 432h480v-144h-480zm416-88h32v32h-32zm-384-16h208v64h-208z"/><path d="m99.32 68.68a16.009 16.009 0 0 0 -27.32 11.32v184h32v-184a15.987 15.987 0 0 0 -4.68-11.32z"/><path d="m435.32 68.68a16.009 16.009 0 0 0 -27.32 11.32v184h32v-184a15.987 15.987 0 0 0 -4.68-11.32z"/><circle cx="256" cy="192" r="64"/></g><g fill="#004fac"><path d="m496 280h-24v-16a8 8 0 0 0 -8-8h-16v-176a24 24 0 0 0 -48 0v176h-16a8 8 0 0 0 -8 8v16h-240v-16a8 8 0 0 0 -8-8h-16v-176a24 24 0 0 0 -48 0v176h-16a8 8 0 0 0 -8 8v16h-24a8 8 0 0 0 -8 8v144a8 8 0 0 0 8 8h24v16a8 8 0 0 0 8 8h416a8 8 0 0 0 8-8v-16h24a8 8 0 0 0 8-8v-144a8 8 0 0 0 -8-8zm-80-200a8 8 0 0 1 16 0v176h-16zm-24 192h64v8h-64zm-312-192a8 8 0 0 1 16 0v176h-16zm-24 192h64v8h-64zm400 176h-400v-8h400zm32-24h-464v-128h464z"/><path d="m432 336a8 8 0 0 0 -8 8v32a8 8 0 0 0 8 8h32a8 8 0 0 0 8-8v-32a8 8 0 0 0 -8-8zm24 32h-16v-16h16z"/><path d="m256 320h-208a8 8 0 0 0 -8 8v64a8 8 0 0 0 8 8h208a8 8 0 0 0 8-8v-64a8 8 0 0 0 -8-8zm-8 64h-192v-48h192z"/><circle cx="400" cy="360" r="8"/><circle cx="376" cy="360" r="8"/><circle cx="352" cy="360" r="8"/><circle cx="256" cy="216" r="8"/><path d="m277.336 192.15a32 32 0 0 0 -42.672 0 8 8 0 1 0 10.672 11.922 16 16 0 0 1 21.328 0 8 8 0 0 0 10.672-11.922z"/><path d="m229.335 186.184a40 40 0 0 1 53.33 0 8 8 0 1 0 10.67-11.922 56 56 0 0 0 -74.67 0 8 8 0 0 0 10.67 11.922z"/><path d="m256 264a72 72 0 1 0 -72-72 72.081 72.081 0 0 0 72 72zm0-128a56 56 0 1 1 -56 56 56.063 56.063 0 0 1 56-56z"/></g></g></svg>