<svg id="Capa_1" enable-background="new 0 0 512 512" height="512" viewBox="0 0 512 512" width="512" xmlns="http://www.w3.org/2000/svg"><g><g><path d="m477.877 0h-259.501c-6.128 0-11.096 3.954-11.096 10.081v212.623h173.001c11.809 0 21.383 9.571 21.383 21.377v85.671h76.213c6.128 0 11.096-4.966 11.096-11.093v-308.578c0-6.127-4.968-10.081-11.096-10.081z" fill="#b2f0fb"/></g><g><g><g fill="#020288"><path d="m411.664 480.581v-236.497c0-17.303-14.077-31.38-31.38-31.38h-325.877c-17.303 0-31.38 14.077-31.38 31.38v236.537c0 .052 0 .103.001.155.085 17.231 14.129 31.224 31.379 31.224h325.877c17.246 0 31.287-13.985 31.379-31.21.001-.07.001-.14.001-.209zm-133.659-106.5 113.659-106.871v193.252zm-223.598-141.377h325.877c4.967 0 9.201 3.199 10.75 7.646l-139.818 131.467c-9.359 8.265-21.382 12.814-33.871 12.814s-24.512-4.55-33.871-12.814l-139.817-131.467c1.549-4.447 5.783-7.646 10.75-7.646zm-11.38 34.506 113.668 106.88-113.668 86.375zm337.257 224.79h-325.877c-4.748 0-8.825-2.923-10.529-7.063l127.659-97.007c12.82 10.784 29.011 16.702 45.808 16.702 16.801 0 32.996-5.921 45.817-16.71l127.65 97.014c-1.703 4.141-5.781 7.064-10.528 7.064z"/><path d="m272.486 105.582h145.82c5.522 0 10-4.478 10-10s-4.478-10-10-10h-145.82c-5.522 0-10 4.478-10 10s4.478 10 10 10z"/><path d="m418.307 143.739h-145.82c-5.522 0-10 4.478-10 10s4.478 10 10 10h145.82c5.522 0 10-4.478 10-10s-4.478-10-10-10z"/></g></g></g></g></svg>