<svg height="512pt" viewBox="0 0 512 511" width="512pt" xmlns="http://www.w3.org/2000/svg"><path d="m136 327.492188c-8.285156 0-15-6.714844-15-15v-143c0-8.285157 6.714844-15 15-15s15 6.714843 15 15v143c0 8.285156-6.714844 15-15 15zm0 0" fill="#00347b"/><path d="m416.644531 232.492188h-59.832031c-5.972656 0-10.8125-6.714844-10.8125-15v-111c0-6.460938 2.980469-12.195313 7.398438-14.234376 4.417968-2.039062 9.285156.078126 12.074218 5.253907l59.828125 111c2.453125 4.546875 2.84375 10.621093 1.007813 15.699219-1.832032 5.074218-5.574219 8.28125-9.664063 8.28125zm0 0" fill="#001737"/><path d="m266 512.492188h-251c-8.285156 0-15-6.714844-15-15v-182c0-8.285157 6.714844-15 15-15h251c8.285156 0 15 6.714843 15 15v182c0 8.285156-6.714844 15-15 15zm0 0" fill="#27d8f6"/><path d="m497 512.492188h-59l-64.5-29-47.5 29h-54.75c-8.285156 0-15-6.714844-15-15v-280c0-8.285157 6.714844-15 15-15h225.75c8.285156 0 15 6.714843 15 15v280c0 8.285156-6.714844 15-15 15zm0 0" fill="#ebe1dc"/><path d="m430.128906 352.492188h-92.007812c-8.28125 0-15-6.714844-15-15 0-8.285157 6.71875-15 15-15h92.007812c8.28125 0 15 6.714843 15 15 0 8.285156-6.71875 15-15 15zm0 0" fill="#00aadf"/><path d="m430.128906 292.492188h-92.007812c-8.28125 0-15-6.714844-15-15 0-8.285157 6.71875-15 15-15h92.007812c8.28125 0 15 6.714843 15 15 0 8.285156-6.71875 15-15 15zm0 0" fill="#00aadf"/><g fill="#f5f0eb"><path d="m98.125 391.492188h-30c-8.285156 0-15-6.714844-15-15 0-8.285157 6.714844-15 15-15h30c8.285156 0 15 6.714843 15 15 0 8.285156-6.714844 15-15 15zm0 0"/><path d="m188.125 391.492188h-30c-8.285156 0-15-6.714844-15-15 0-8.285157 6.714844-15 15-15h30c8.285156 0 15 6.714843 15 15 0 8.285156-6.714844 15-15 15zm0 0"/><path d="m98.125 451.492188h-30c-8.285156 0-15-6.714844-15-15 0-8.285157 6.714844-15 15-15h30c8.285156 0 15 6.714843 15 15 0 8.285156-6.714844 15-15 15zm0 0"/><path d="m188.125 451.492188h-30c-8.285156 0-15-6.714844-15-15 0-8.285157 6.714844-15 15-15h30c8.285156 0 15 6.714843 15 15 0 8.285156-6.714844 15-15 15zm0 0"/><path d="m447.53125 95.695312c-3.207031 0-6.320312-1.261718-8.632812-3.574218l-36.515626-36.519532c-2.886718-2.882812-4.140624-7.015624-3.34375-11.015624.796876-4 3.539063-7.339844 7.308594-8.898438l62.261719-25.742188c4.5625-1.886718 9.808594-.84375 13.296875 2.648438 3.492188 3.488281 4.535156 8.738281 2.652344 13.296875l-25.746094 62.261719c-1.558594 3.769531-4.894531 6.511718-8.898438 7.308594-.792968.15625-1.589843.234374-2.382812.234374zm0 0"/></g><path d="m425.363281 166.652344c-1.175781 0-2.355469-.023438-3.535156-.0625-24.703125-.886719-47.9375-11.003906-65.425781-28.492188-17.488282-17.484375-27.605469-40.722656-28.488282-65.425781-.878906-24.570313 7.429688-48.34375 23.398438-66.941406 2.71875-3.167969 6.636719-5.058594 10.808594-5.21875 4.175781-.164063 8.226562 1.429687 11.179687 4.382812l116.304688 116.308594c2.953125 2.953125 4.542969 7.003906 4.382812 11.175781-.15625 4.171875-2.046875 8.089844-5.214843 10.808594-17.707032 15.203125-40.101563 23.464844-63.410157 23.464844zm0 0" fill="#27d8f6"/><path d="m136 184.492188c-24.8125 0-45-20.1875-45-45s20.1875-45 45-45 45 20.1875 45 45-20.1875 45-45 45zm0 0" fill="#00429d"/><path d="m54.933594 193.566406c-5.582032 0-10.9375-3.128906-13.523438-8.492187-6.808594-14.132813-10.410156-29.894531-10.410156-45.582031 0-12.992188 2.375-25.722657 7.054688-37.839844 2.984374-7.730469 11.671874-11.574219 19.398437-8.585938 7.726563 2.984375 11.570313 11.667969 8.585937 19.398438-3.34375 8.65625-5.039062 17.75-5.039062 27.027344 0 11.207031 2.570312 22.464843 7.433594 32.5625 3.597656 7.460937.460937 16.425781-7 20.023437-2.097656 1.007813-4.316406 1.488281-6.5 1.488281zm0 0" fill="#00eccf"/><path d="m216.566406 193.566406c-2.183594 0-4.402344-.480468-6.5-1.488281-7.464844-3.597656-10.597656-12.5625-7.003906-20.027344 4.867188-10.09375 7.4375-21.351562 7.4375-32.558593 0-9.277344-1.695312-18.371094-5.039062-27.03125-2.988282-7.726563.855468-16.410157 8.585937-19.398438 7.726563-2.984375 16.410156.859375 19.394531 8.585938 4.683594 12.121093 7.058594 24.851562 7.058594 37.84375 0 15.6875-3.601562 31.449218-10.410156 45.582031-2.582032 5.363281-7.941406 8.492187-13.523438 8.492187zm0 0" fill="#00eccf"/><path d="m430.125 380.492188h-92c-8.285156 0-15 6.714843-15 15v117.003906h122v-117.003906c0-8.285157-6.714844-15-15-15zm0 0" fill="#001737"/></svg>